Patient4_TMGait_0pt3_02_right_05_EMG.mot
version=1
nRows=23
nColumns=33
inDegrees=no
endheader
time	1LAddLong	2LGlutMax	3LGlutMed	4LIliopsoas	5LSemiMemb	6LBicFemLong	7LRecFem	8LVastMed	9LVastLat	10LGasMed	11LTibAnt	12lTibPost	13LPeroneusLong	14LSol	15LExtDigLong	16LFlexDigLong	17RAddLong	18RGlutMax	19RGlutMed	20RIliopsoas	21RSemiMemb	22RBicFemLong	23RRecFem	24RVastMed	25RVastLat	26RGasMed	27RTibAnt	28RTibPost	29RPeroneusLong	30RSol	31RExtDigLong	32RFlexDigLong
10.495	-0.002594	0.09201	-0.050201	-0.016022	0.033569	0.052948	-0.18173	0.008698	0.14358	-0.084991	-0.020294	0.55847	0.07309	-0.072937	-0.037689	0.28336	-0.04425	-0.13718	-0.096741	-0.079041	0.12131	0.011139	0.041656	-0.009613	0.006409	-0.008545	0.042572	-0.00824	-0.088043	0.013123	-0.003662	-0.020447
10.496	-0.003052	0.075684	-0.09491	0	0.000153	-0.011444	-0.26916	-0.002899	0.15411	-0.19409	-0.015564	0.17487	0.011749	-0.43335	-0.027008	0.14984	-0.02594	-0.060883	-0.093536	-0.086517	0.13153	0.02182	0.070343	0.01709	0	0.003052	0.002289	-0.002594	0.006561	-0.048981	-0.00946	-0.016327
10.497	0.002289	0.027466	-0.12192	0.012665	0.061646	-0.086975	-0.22278	-0.014954	0.1831	-0.14282	-0.002136	0.041809	-0.047607	0.04425	-0.007019	0.038147	-0.004272	-0.012512	-0.2124	-0.099182	0.15045	0.024872	0.028381	0.064697	0.007477	-0.012207	-0.096893	-0.001984	0.036774	-0.065918	-0.001831	-0.016022
10.498	-0.008087	-0.028534	-0.17395	0.001221	0.076752	-0.077515	-0.019684	-0.019073	0.11551	-0.17014	-0.000916	-0.09903	-0.092468	0.43533	-0.023956	-0.076447	0.006409	-0.03067	-0.43411	-0.053864	0.14679	0.040741	0.005188	0.074768	0.019226	-0.001526	0.000763	-0.001678	0.004425	-0.067749	-0.003967	-0.009003
10.499	-0.006866	-0.001678	-0.17227	-0.014191	0.036926	-0.023346	0.090027	-0.010376	0.038757	-0.085602	0.002441	-0.062103	-0.067902	-0.35736	-0.011139	-0.16083	0.011139	0.000763	-0.39047	0.00061	0.13763	0.014191	0.030518	0.057983	0.010223	0.002289	-0.045624	-0.001526	0.053711	-0.024414	-0.007629	-0.000305
10.5	-0.009003	0.027618	-0.168	-0.001526	0.015869	0.029297	0.06958	-0.016632	0.019684	-0.12161	-0.005341	0.004425	-0.048676	-0.45227	0.028992	-0.072937	0.026398	0.002747	-0.22064	-0.031433	0.12177	-0.002899	0.049896	0.040131	-0.011444	-0.001678	-0.069275	-0.009918	0.054169	0.005188	-0.002594	-0.01297
10.501	-0.010376	0.063782	-0.10208	0.000763	0.013123	0.050507	0.030518	-0.01297	-0.021973	-0.15808	-0.008392	-0.045929	-0.10117	-0.66009	0.027313	0.11551	0.04776	0.011139	-0.16098	-0.020294	0.12192	-0.011444	0.045166	-0.005035	-0.013885	-0.003967	0.059509	-0.005646	0.008698	-0.002747	-0.001526	-0.003052
10.502	-0.002899	0.047607	-0.10452	0.006409	0.03418	-0.10788	-0.000458	-0.008087	0.056763	0.007019	0.010834	-0.019989	-0.12192	-0.10712	0.003357	0.051575	0.071411	0.070343	-0.20126	-0.041962	0.095215	-0.00824	0.057526	-0.01709	0.006714	-0.003204	0.15595	-0.00351	-0.024261	-0.049286	-0.004272	-0.001678
10.503	0.011139	0.055847	-0.090332	0.000305	0.043793	-0.075684	0.056763	0.005188	0.17929	0.23132	-0.007477	-0.007782	-0.043945	0.29037	0.011597	0.031738	0.051422	0.057678	-0.16312	-0.036621	0.10315	0.001221	0.042572	0.004578	0.000458	0.000916	-0.030518	-0.001831	0.028992	-0.047913	-0.005341	-0.00351
10.504	0.011292	0.051117	-0.039673	-0.003052	0.031128	-0.075378	0.075836	-0.000458	0.16968	0.044708	-0.004883	0.050507	-0.001526	0.3891	0.00412	0.093842	0.02594	0.13825	-0.050354	0.031128	0.08316	-0.002136	0.068665	0.036011	0.004272	-0.009003	-0.061798	-0.002594	0.003662	0.024261	-0.003967	-0.006409
10.505	0.021515	0.026093	-0.10315	-0.002747	0.02533	-0.087585	0.054626	0.000916	0.054016	0.19516	-0.002594	-0.076447	0.095673	0.62531	0.005188	0.049438	-0.012665	0.0354	-0.050659	0.019684	0.098114	0.03418	0.044861	-0.05188	0.004425	-0.008545	0.023193	0.005035	-0.005798	0.071716	-0.001678	-0.010071
10.506	0.019226	-0.052185	-0.004578	0.008087	0.025177	-0.039368	0.037079	-0.007019	-0.085602	0.30624	-0.005493	-0.12299	0.12344	0.83832	-0.006866	-0.12711	-0.012207	0.00412	-0.10223	-0.045776	0.085449	0.024872	0.033722	-0.018005	-0.010223	-0.010681	0.15717	-0.005188	-0.041962	0.061188	-0.001068	-0.01236
10.507	0.018616	-0.071411	0.15106	0.005341	0.015259	0.046082	0.072784	0.002441	-0.35904	0.19226	0.001831	-0.080872	0.10223	0.37003	-0.034943	-0.044098	-0.033875	0.068817	-0.093994	-0.12512	0.089264	0.019379	0.058746	0.00885	0.000153	-0.008392	0.17532	-0.001984	-0.066376	0.047302	-0.005341	-0.00885
10.508	0.016937	-0.081177	0.18509	0.009613	0.009155	0.18173	0.066528	0.00885	-0.31418	0.10391	-0.016785	-0.030212	0.039825	-0.32562	-0.011292	0.033417	0.001831	-0.01236	-0.11581	-0.06546	0.074463	0	0.06485	-0.019531	-0.016022	-0.005035	0.21698	-0.007019	-0.038605	0.023499	-0.004578	-0.018616
10.509	0.020294	-0.16129	0.12924	0.016785	0.007477	0.29434	-0.01709	0.007324	-0.11856	0.38208	0.003357	-0.010376	0.018921	-0.51636	-0.016174	0.027313	0.01709	-0.003357	-0.11292	-0.11169	0.0737	-0.010681	0.034485	0.00946	-0.010986	0.003967	0.1709	-0.002594	-0.023956	0.008392	-0.003204	-0.015106
10.51	0.014954	-0.10223	0.10529	0.007935	0.007324	0.31906	-0.026398	-0.006104	0.011444	0.1091	-0.014496	-0.053558	0.005646	-0.39612	-0.023346	0.005188	0.01358	0.055084	-0.001221	-0.11169	0.07782	-0.000916	0.066681	0.005341	-0.003052	-0.002899	0.28549	-0.002136	0.003815	-0.026245	-0.004578	-0.018768
10.511	0.007019	-0.079193	0.091858	0.003052	-0.003204	0.3122	0.007782	0.013123	-0.032043	-0.41748	-0.015564	-0.12421	-0.002289	-0.52124	-0.028839	-0.044403	-0.00824	0.035858	-0.076904	-0.12863	0.073395	-0.005493	0.065308	0.013123	0.002441	-0.005035	0.18387	-0.002441	0.033112	-0.037994	-0.00473	-0.019836
10.512	0.00885	-0.072784	0.014801	-0.010223	-0.007629	0.3064	0.076599	-0.00946	-0.004883	-0.22247	0.002136	-0.001373	-0.00473	-0.39459	-0.018921	-0.055695	-0.023193	0.078888	-0.13367	-0.073547	0.076294	-0.016937	0.056915	-0.018005	-0.009766	-0.002136	0.00824	-0.001221	0.055847	-0.049744	-0.005798	-0.013428
10.513	0.005188	-0.082397	0.029907	-0.002899	-0.026245	0.16159	0.075073	-0.029297	-0.000305	-0.1535	0.011444	0.20935	-0.072937	-0.20844	-0.015259	0.01297	-0.032196	0.064392	-0.31738	-0.045013	0.074463	-0.018768	0.057373	-0.045929	-0.001068	-0.002136	-0.01709	-0.003052	-0.065002	-0.036621	-0.004883	-0.010071
10.514	-0.001221	-0.094757	0.003204	0.012512	-0.038757	-0.16769	0.095825	-0.014648	-0.014038	-0.1207	0.010071	0.2124	-0.046387	-0.067749	0.029755	0.16159	0.011902	0.074768	-0.43167	0.010834	0.072021	-0.006256	0.035553	-0.034943	-0.007935	0	0.26688	-0.009918	-0.093079	0.006866	-0.00473	-0.014648
10.515	-0.003357	-0.13489	-0.070953	0.010681	-0.016479	-0.46768	0.020905	0.037689	0.037689	-0.063477	0.004425	0.010223	-0.033722	-0.080261	0.017242	0.047302	0.079041	0.08316	-0.31982	0.10376	0.072174	0.004883	0.093079	-0.011444	-0.001221	-0.015717	0.52261	-0.001068	-0.12863	-0.056152	-0.003815	-0.012054
10.516	-0.01358	-0.12466	-0.089111	0.00412	0.044861	-0.49118	-0.029144	0.078125	0.1535	-0.058441	-0.011597	-0.005188	-0.016785	-0.075989	0.026855	-0.042114	0.079803	0.13473	-0.16037	0.15228	0.074005	-0.020905	0.046539	-0.00824	-0.007324	-0.007782	0.4715	-0.003204	-0.10834	-0.099182	-0.005798	-0.00824
10.517	0.002594	-0.1445	-0.041199	0	0.028076	-0.21301	0.005341	0.056458	0.2533	-0.046692	0.004272	-0.027771	0.058441	0.06012	0.043793	-0.023499	0.041046	0.062561	-0.062408	0.073395	0.055084	-0.023651	0.073853	-0.050507	-0.001678	0.001831	0.080566	-0.007629	-0.29282	-0.11169	-0.005341	-0.002136
